# xmcd
#
# Track frame offsets: 
#        150
#        11583
#        22435
#        35355
#        49080
#        60520
#        71755
#        82860
#        100043
#        112020
#        124750
#        135345
#        148775
#        158278
#        179345
#        190818
#        210428
#        226565
#        244180
#        257913
#        276028
#        291885
#
# Disc length: 4097 seconds
#
# Revision: 10
# Processed by: cddbd v1.5.2PL0 Copyright (c) Steve Scherf et al.
# Submitted via: ExactAudioCopyFreeDBPlugin 1.0
#
DISCID=2e0fff16
DTITLE=Willie Nelson - The Essential - CD1
DYEAR=2003
DGENRE=Country
TTITLE0=Night Life
TTITLE1=Hello Walls
TTITLE2=Crazy
TTITLE3=Funny How Time Slips Away
TTITLE4=I Never Cared For You
TTITLE5=The Party's Over
TTITLE6=Good Times
TTITLE7=Me And Paul
TTITLE8=Shotgun Willie
TTITLE9=Bloody Mary Morning
TTITLE10=Blue Eyes Crying In The Rain
TTITLE11=Willie Nelson and Waylon Jennings - Good Hearted Woman
TTITLE12=If You've Got The Money I've Got The Time
TTITLE13=Uncloudy Day
TTITLE14=Willie Nelson and Waylon Jennings - Mammas Don't Let Your Babie
TTITLE14=s Grow Up To Be Cowboys
TTITLE15=Georgia On My Mind
TTITLE16=Blue Skies
TTITLE17=All Of Me
TTITLE18=Willie Nelson and Leon Russell - Heartbreak Hotel
TTITLE19=Help Me Make It Through The Night
TTITLE20=Whiskey River (Live)
TTITLE21=Stay A Little Longer (Live)
EXTD=YEAR: 2003
EXTT0=
EXTT1=
EXTT2=
EXTT3=
EXTT4=
EXTT5=
EXTT6=
EXTT7=
EXTT8=
EXTT9=
EXTT10=
EXTT11=
EXTT12=
EXTT13=
EXTT14=
EXTT15=
EXTT16=
EXTT17=
EXTT18=
EXTT19=
EXTT20=
EXTT21=
PLAYORDER=
